<svg width="13" height="16" viewBox="0 0 13 16" fill="none" xmlns="http://www.w3.org/2000/svg">
<path d="M6.46222 6.48752C8.30867 6.48752 9.80579 5.04031 9.80579 3.24376C9.80579 1.44722 8.30867 0 6.46222 0C4.61577 0 3.11865 1.44722 3.11865 3.24376C3.11865 5.04031 4.61577 6.48752 6.46222 6.48752ZM6.46222 1.14779C7.68487 1.14779 8.68295 2.09597 8.68295 3.26871C8.68295 4.44146 7.68487 5.38963 6.46222 5.38963C5.23957 5.38963 4.24149 4.44146 4.24149 3.26871C4.24149 2.09597 5.23957 1.14779 6.46222 1.14779Z" fill="#B3C0FF"/>
<path d="M8.08445 7.60938H4.84069C2.17083 7.60938 0 9.80515 0 12.475V14.546C0 14.8455 0.24952 15.1199 0.573896 15.1199C0.898272 15.1199 1.14779 14.8704 1.14779 14.546V12.475C1.14779 10.429 2.81958 8.73222 4.89059 8.73222H8.1094C10.1555 8.73222 11.8522 10.404 11.8522 12.475V14.546C11.8522 14.8455 12.1017 15.1199 12.4261 15.1199C12.7505 15.1199 13 14.8704 13 14.546V12.475C12.9251 9.80515 10.7543 7.60938 8.08445 7.60938Z" fill="#B3C0FF"/>
</svg>
